G04*
G04 #@! TF.GenerationSoftware,Altium Limited,Altium Designer,22.5.1 (42)*
G04*
G04 Layer_Color=8388736*
%FSLAX44Y44*%
%MOMM*%
G71*
G04*
G04 #@! TF.SameCoordinates,6C3A9871-7614-464A-A6E8-5A1B9E04D4B5*
G04*
G04*
G04 #@! TF.FilePolarity,Negative*
G04*
G01*
G75*
%ADD17R,1.2032X1.2032*%
%ADD18R,1.2032X0.8032*%
%ADD19R,0.8032X1.3032*%
%ADD20R,1.6500X0.4000*%
%ADD21R,0.4000X1.6500*%
G04:AMPARAMS|DCode=22|XSize=1.3032mm|YSize=1.8032mm|CornerRadius=0.2391mm|HoleSize=0mm|Usage=FLASHONLY|Rotation=0.000|XOffset=0mm|YOffset=0mm|HoleType=Round|Shape=RoundedRectangle|*
%AMROUNDEDRECTD22*
21,1,1.3032,1.3250,0,0,0.0*
21,1,0.8250,1.8032,0,0,0.0*
1,1,0.4782,0.4125,-0.6625*
1,1,0.4782,-0.4125,-0.6625*
1,1,0.4782,-0.4125,0.6625*
1,1,0.4782,0.4125,0.6625*
%
%ADD22ROUNDEDRECTD22*%
G04:AMPARAMS|DCode=23|XSize=2.2032mm|YSize=3.8032mm|CornerRadius=0.3516mm|HoleSize=0mm|Usage=FLASHONLY|Rotation=90.000|XOffset=0mm|YOffset=0mm|HoleType=Round|Shape=RoundedRectangle|*
%AMROUNDEDRECTD23*
21,1,2.2032,3.1000,0,0,90.0*
21,1,1.5000,3.8032,0,0,90.0*
1,1,0.7032,1.5500,0.7500*
1,1,0.7032,1.5500,-0.7500*
1,1,0.7032,-1.5500,-0.7500*
1,1,0.7032,-1.5500,0.7500*
%
%ADD23ROUNDEDRECTD23*%
G04:AMPARAMS|DCode=24|XSize=1.2032mm|YSize=1.5032mm|CornerRadius=0.2266mm|HoleSize=0mm|Usage=FLASHONLY|Rotation=270.000|XOffset=0mm|YOffset=0mm|HoleType=Round|Shape=RoundedRectangle|*
%AMROUNDEDRECTD24*
21,1,1.2032,1.0500,0,0,270.0*
21,1,0.7500,1.5032,0,0,270.0*
1,1,0.4532,-0.5250,-0.3750*
1,1,0.4532,-0.5250,0.3750*
1,1,0.4532,0.5250,0.3750*
1,1,0.4532,0.5250,-0.3750*
%
%ADD24ROUNDEDRECTD24*%
%ADD25R,1.7532X1.8732*%
%ADD26R,2.7032X2.8032*%
G04:AMPARAMS|DCode=27|XSize=1.2032mm|YSize=1.4032mm|CornerRadius=0.2266mm|HoleSize=0mm|Usage=FLASHONLY|Rotation=0.000|XOffset=0mm|YOffset=0mm|HoleType=Round|Shape=RoundedRectangle|*
%AMROUNDEDRECTD27*
21,1,1.2032,0.9500,0,0,0.0*
21,1,0.7500,1.4032,0,0,0.0*
1,1,0.4532,0.3750,-0.4750*
1,1,0.4532,-0.3750,-0.4750*
1,1,0.4532,-0.3750,0.4750*
1,1,0.4532,0.3750,0.4750*
%
%ADD27ROUNDEDRECTD27*%
%ADD28R,0.8032X1.6532*%
G04:AMPARAMS|DCode=29|XSize=1.3032mm|YSize=1.8032mm|CornerRadius=0.2391mm|HoleSize=0mm|Usage=FLASHONLY|Rotation=270.000|XOffset=0mm|YOffset=0mm|HoleType=Round|Shape=RoundedRectangle|*
%AMROUNDEDRECTD29*
21,1,1.3032,1.3250,0,0,270.0*
21,1,0.8250,1.8032,0,0,270.0*
1,1,0.4782,-0.6625,-0.4125*
1,1,0.4782,-0.6625,0.4125*
1,1,0.4782,0.6625,0.4125*
1,1,0.4782,0.6625,-0.4125*
%
%ADD29ROUNDEDRECTD29*%
%ADD30R,1.7032X6.2032*%
G04:AMPARAMS|DCode=31|XSize=1.2032mm|YSize=1.5032mm|CornerRadius=0.2266mm|HoleSize=0mm|Usage=FLASHONLY|Rotation=180.000|XOffset=0mm|YOffset=0mm|HoleType=Round|Shape=RoundedRectangle|*
%AMROUNDEDRECTD31*
21,1,1.2032,1.0500,0,0,180.0*
21,1,0.7500,1.5032,0,0,180.0*
1,1,0.4532,-0.3750,0.5250*
1,1,0.4532,0.3750,0.5250*
1,1,0.4532,0.3750,-0.5250*
1,1,0.4532,-0.3750,-0.5250*
%
%ADD31ROUNDEDRECTD31*%
G04:AMPARAMS|DCode=32|XSize=1.3032mm|YSize=1.6032mm|CornerRadius=0.2391mm|HoleSize=0mm|Usage=FLASHONLY|Rotation=90.000|XOffset=0mm|YOffset=0mm|HoleType=Round|Shape=RoundedRectangle|*
%AMROUNDEDRECTD32*
21,1,1.3032,1.1250,0,0,90.0*
21,1,0.8250,1.6032,0,0,90.0*
1,1,0.4782,0.5625,0.4125*
1,1,0.4782,0.5625,-0.4125*
1,1,0.4782,-0.5625,-0.4125*
1,1,0.4782,-0.5625,0.4125*
%
%ADD32ROUNDEDRECTD32*%
%ADD33R,1.6532X0.8032*%
%ADD34R,6.8032X5.7032*%
%ADD35R,2.3032X1.2032*%
G04:AMPARAMS|DCode=36|XSize=1.3032mm|YSize=1.6032mm|CornerRadius=0.2391mm|HoleSize=0mm|Usage=FLASHONLY|Rotation=180.000|XOffset=0mm|YOffset=0mm|HoleType=Round|Shape=RoundedRectangle|*
%AMROUNDEDRECTD36*
21,1,1.3032,1.1250,0,0,180.0*
21,1,0.8250,1.6032,0,0,180.0*
1,1,0.4782,-0.4125,0.5625*
1,1,0.4782,0.4125,0.5625*
1,1,0.4782,0.4125,-0.5625*
1,1,0.4782,-0.4125,-0.5625*
%
%ADD36ROUNDEDRECTD36*%
G04:AMPARAMS|DCode=37|XSize=1.2032mm|YSize=1.4032mm|CornerRadius=0.2266mm|HoleSize=0mm|Usage=FLASHONLY|Rotation=90.000|XOffset=0mm|YOffset=0mm|HoleType=Round|Shape=RoundedRectangle|*
%AMROUNDEDRECTD37*
21,1,1.2032,0.9500,0,0,90.0*
21,1,0.7500,1.4032,0,0,90.0*
1,1,0.4532,0.4750,0.3750*
1,1,0.4532,0.4750,-0.3750*
1,1,0.4532,-0.4750,-0.3750*
1,1,0.4532,-0.4750,0.3750*
%
%ADD37ROUNDEDRECTD37*%
%ADD38R,0.9632X1.4732*%
%ADD39R,1.4732X0.9632*%
G04:AMPARAMS|DCode=40|XSize=1.4032mm|YSize=2.2032mm|CornerRadius=0.2516mm|HoleSize=0mm|Usage=FLASHONLY|Rotation=270.000|XOffset=0mm|YOffset=0mm|HoleType=Round|Shape=RoundedRectangle|*
%AMROUNDEDRECTD40*
21,1,1.4032,1.7000,0,0,270.0*
21,1,0.9000,2.2032,0,0,270.0*
1,1,0.5032,-0.8500,-0.4500*
1,1,0.5032,-0.8500,0.4500*
1,1,0.5032,0.8500,0.4500*
1,1,0.5032,0.8500,-0.4500*
%
%ADD40ROUNDEDRECTD40*%
%ADD41R,1.3032X0.8032*%
%ADD42R,0.8032X1.2532*%
%ADD43R,4.3032X1.7532*%
%ADD44C,1.9032*%
%ADD45C,1.7032*%
%ADD46C,2.7532*%
%ADD47R,2.7532X2.7532*%
%ADD48C,0.2032*%
%ADD49R,2.9032X2.9032*%
%ADD50C,2.9032*%
%ADD51C,3.4032*%
%ADD52R,2.7032X2.7032*%
%ADD53C,2.7032*%
%ADD54R,1.7032X1.7032*%
%ADD55R,1.9032X1.9032*%
%ADD56C,1.8032*%
%ADD57C,3.2032*%
%ADD58R,1.7032X1.7032*%
%ADD59C,3.7032*%
%ADD60R,1.8032X1.8032*%
%ADD61C,3.0032*%
%ADD62R,3.0032X3.0032*%
D17*
X1837000Y1090500D02*
D03*
D18*
Y1073500D02*
D03*
X1861000D02*
D03*
Y1092500D02*
D03*
D19*
X1305000Y2020000D02*
D03*
X1314500Y1996000D02*
D03*
X1295500D02*
D03*
X1305000Y1563000D02*
D03*
X1314500Y1539000D02*
D03*
X1295500D02*
D03*
X1360000Y2022000D02*
D03*
X1369500Y1998000D02*
D03*
X1350500D02*
D03*
X1406500Y1330000D02*
D03*
X1425500D02*
D03*
X1416000Y1354000D02*
D03*
X1147000Y1273000D02*
D03*
X1137500Y1297000D02*
D03*
X1156500D02*
D03*
X1137500Y1313000D02*
D03*
X1156500D02*
D03*
X1147000Y1337000D02*
D03*
X1360000Y1273000D02*
D03*
X1350500Y1297000D02*
D03*
X1369500D02*
D03*
X1360000Y1336000D02*
D03*
X1369500Y1312000D02*
D03*
X1350500D02*
D03*
X1305000Y1334000D02*
D03*
X1314500Y1310000D02*
D03*
X1295500D02*
D03*
X1350500Y1426000D02*
D03*
X1369500D02*
D03*
X1360000Y1450000D02*
D03*
X1137500Y1427000D02*
D03*
X1156500D02*
D03*
X1147000Y1451000D02*
D03*
X1369500Y1411000D02*
D03*
X1350500D02*
D03*
X1360000Y1387000D02*
D03*
X1406500Y1444000D02*
D03*
X1425500D02*
D03*
X1416000Y1468000D02*
D03*
X1305000Y1448000D02*
D03*
X1314500Y1424000D02*
D03*
X1295500D02*
D03*
X1156500Y1411000D02*
D03*
X1137500D02*
D03*
X1147000Y1387000D02*
D03*
Y1566000D02*
D03*
X1156500Y1542000D02*
D03*
X1137500D02*
D03*
X1360000Y1502000D02*
D03*
X1350500Y1526000D02*
D03*
X1369500D02*
D03*
X1350500Y1541000D02*
D03*
X1369500D02*
D03*
X1360000Y1565000D02*
D03*
X1406500Y1559000D02*
D03*
X1425500D02*
D03*
X1416000Y1583000D02*
D03*
X1156500Y1526000D02*
D03*
X1137500D02*
D03*
X1147000Y1502000D02*
D03*
X1350500Y1655000D02*
D03*
X1369500D02*
D03*
X1360000Y1679000D02*
D03*
X1305000Y1677000D02*
D03*
X1314500Y1653000D02*
D03*
X1295500D02*
D03*
X1406500Y1673000D02*
D03*
X1425500D02*
D03*
X1416000Y1697000D02*
D03*
X1156500Y1640000D02*
D03*
X1137500D02*
D03*
X1147000Y1616000D02*
D03*
X1137500Y1656000D02*
D03*
X1156500D02*
D03*
X1147000Y1680000D02*
D03*
X1360000Y1616000D02*
D03*
X1350500Y1640000D02*
D03*
X1369500D02*
D03*
X1137500Y1771000D02*
D03*
X1156500D02*
D03*
X1147000Y1795000D02*
D03*
X1369500Y1755000D02*
D03*
X1350500D02*
D03*
X1360000Y1731000D02*
D03*
X1350500Y1770000D02*
D03*
X1369500D02*
D03*
X1360000Y1794000D02*
D03*
X1406500Y1788000D02*
D03*
X1425500D02*
D03*
X1416000Y1812000D02*
D03*
X1295500Y1768000D02*
D03*
X1314500D02*
D03*
X1305000Y1792000D02*
D03*
X1156500Y1755000D02*
D03*
X1137500D02*
D03*
X1147000Y1731000D02*
D03*
X1137500Y1886000D02*
D03*
X1156500D02*
D03*
X1147000Y1910000D02*
D03*
X1369500Y1870000D02*
D03*
X1350500D02*
D03*
X1360000Y1846000D02*
D03*
X1350500Y1885000D02*
D03*
X1369500D02*
D03*
X1360000Y1909000D02*
D03*
X1406500Y1903000D02*
D03*
X1425500D02*
D03*
X1416000Y1927000D02*
D03*
X1295500Y1883000D02*
D03*
X1314500D02*
D03*
X1305000Y1907000D02*
D03*
X1156500Y1870000D02*
D03*
X1137500D02*
D03*
X1147000Y1846000D02*
D03*
X1137500Y1999000D02*
D03*
X1156500D02*
D03*
X1147000Y2023000D02*
D03*
X1369500Y1983000D02*
D03*
X1350500D02*
D03*
X1360000Y1959000D02*
D03*
X1406500Y2017000D02*
D03*
X1425500D02*
D03*
X1416000Y2041000D02*
D03*
X1156500Y1983000D02*
D03*
X1137500D02*
D03*
X1147000Y1959000D02*
D03*
X1360000Y2138000D02*
D03*
X1369500Y2114000D02*
D03*
X1350500D02*
D03*
X1360000Y2075000D02*
D03*
X1350500Y2099000D02*
D03*
X1369500D02*
D03*
X1147000Y2075000D02*
D03*
X1137500Y2099000D02*
D03*
X1156500D02*
D03*
X1147000Y2139000D02*
D03*
X1156500Y2115000D02*
D03*
X1137500D02*
D03*
X1295500Y2112000D02*
D03*
X1314500D02*
D03*
X1305000Y2136000D02*
D03*
X1406500Y2132000D02*
D03*
X1425500D02*
D03*
X1416000Y2156000D02*
D03*
X1163000Y1132000D02*
D03*
X1172500Y1108000D02*
D03*
X1153500D02*
D03*
D20*
X1680750Y1551500D02*
D03*
Y1556500D02*
D03*
Y1561500D02*
D03*
Y1566500D02*
D03*
Y1571500D02*
D03*
Y1576500D02*
D03*
Y1581500D02*
D03*
Y1586500D02*
D03*
Y1591500D02*
D03*
Y1596500D02*
D03*
Y1601500D02*
D03*
Y1606500D02*
D03*
Y1611500D02*
D03*
Y1616500D02*
D03*
Y1621500D02*
D03*
Y1626500D02*
D03*
X1796250D02*
D03*
Y1621500D02*
D03*
Y1616500D02*
D03*
Y1611500D02*
D03*
Y1606500D02*
D03*
Y1601500D02*
D03*
Y1596500D02*
D03*
Y1591500D02*
D03*
Y1586500D02*
D03*
Y1581500D02*
D03*
Y1576500D02*
D03*
Y1571500D02*
D03*
Y1566500D02*
D03*
Y1561500D02*
D03*
Y1556500D02*
D03*
Y1551500D02*
D03*
D21*
X1701000Y1646750D02*
D03*
X1706000D02*
D03*
X1711000D02*
D03*
X1716000D02*
D03*
X1721000D02*
D03*
X1726000D02*
D03*
X1731000D02*
D03*
X1736000D02*
D03*
X1741000D02*
D03*
X1746000D02*
D03*
X1751000D02*
D03*
X1756000D02*
D03*
X1761000D02*
D03*
X1766000D02*
D03*
X1771000D02*
D03*
X1776000D02*
D03*
Y1531250D02*
D03*
X1771000D02*
D03*
X1766000D02*
D03*
X1761000D02*
D03*
X1756000D02*
D03*
X1751000D02*
D03*
X1746000D02*
D03*
X1741000D02*
D03*
X1736000D02*
D03*
X1731000D02*
D03*
X1726000D02*
D03*
X1721000D02*
D03*
X1716000D02*
D03*
X1711000D02*
D03*
X1706000D02*
D03*
X1701000D02*
D03*
D22*
X1818000Y1485000D02*
D03*
X1838000D02*
D03*
X1818000Y1460000D02*
D03*
X1838000D02*
D03*
X1782000Y1872800D02*
D03*
X1762000D02*
D03*
X1782000Y1847400D02*
D03*
X1762000D02*
D03*
Y1974400D02*
D03*
X1782000D02*
D03*
X1762000Y1898200D02*
D03*
X1782000D02*
D03*
X1762000Y1923600D02*
D03*
X1782000D02*
D03*
D23*
X1835000Y1679000D02*
D03*
Y1643000D02*
D03*
D24*
X1881250Y1677250D02*
D03*
Y1659250D02*
D03*
X1765000Y1150250D02*
D03*
Y1168250D02*
D03*
X1746250Y1466000D02*
D03*
Y1484000D02*
D03*
X1881250Y1443250D02*
D03*
Y1461250D02*
D03*
X1751000Y1713000D02*
D03*
Y1695000D02*
D03*
X1691000Y1677000D02*
D03*
Y1695000D02*
D03*
X1666750Y1063500D02*
D03*
Y1081500D02*
D03*
X1555500Y1063500D02*
D03*
Y1081500D02*
D03*
X1861000Y1123000D02*
D03*
Y1141000D02*
D03*
X1765500Y1466000D02*
D03*
Y1484000D02*
D03*
X1695000Y1466000D02*
D03*
Y1484000D02*
D03*
D25*
X1182350Y1406000D02*
D03*
X1221650D02*
D03*
X1182350Y1635000D02*
D03*
X1221650D02*
D03*
X1182350Y1292000D02*
D03*
X1221650D02*
D03*
Y1521000D02*
D03*
X1182350D02*
D03*
X1221650Y1750000D02*
D03*
X1182350D02*
D03*
X1221650Y1865000D02*
D03*
X1182350D02*
D03*
X1221650Y1978000D02*
D03*
X1182350D02*
D03*
Y2094000D02*
D03*
X1221650D02*
D03*
D26*
X1241000Y2211000D02*
D03*
X1187000D02*
D03*
X1137000Y2211000D02*
D03*
X1083000D02*
D03*
X1447500Y2214500D02*
D03*
X1501500D02*
D03*
D27*
X1834000Y1438000D02*
D03*
X1852000D02*
D03*
X1371500Y2298250D02*
D03*
X1389500D02*
D03*
X1324750Y2298750D02*
D03*
X1306750D02*
D03*
X1871700Y1207000D02*
D03*
X1889700D02*
D03*
X1603000Y1999000D02*
D03*
X1621000D02*
D03*
X1122000Y1355000D02*
D03*
X1140000D02*
D03*
X1175000D02*
D03*
X1157000D02*
D03*
X1283000Y1289000D02*
D03*
X1265000D02*
D03*
X1387750Y1354000D02*
D03*
X1369750D02*
D03*
X1553000Y1329000D02*
D03*
X1571000D02*
D03*
X1445000Y1354000D02*
D03*
X1463000D02*
D03*
X1333000D02*
D03*
X1351000D02*
D03*
X1562000D02*
D03*
X1580000D02*
D03*
X1403000Y1298000D02*
D03*
X1421000D02*
D03*
X1299000Y1289000D02*
D03*
X1317000D02*
D03*
X1603000Y1314000D02*
D03*
X1621000D02*
D03*
X1351000Y1468000D02*
D03*
X1333000D02*
D03*
X1140000Y1469000D02*
D03*
X1122000D02*
D03*
X1157000D02*
D03*
X1175000D02*
D03*
X1265000Y1403000D02*
D03*
X1283000D02*
D03*
X1369750Y1468000D02*
D03*
X1387750D02*
D03*
X1553000Y1443000D02*
D03*
X1571000D02*
D03*
X1463000Y1468000D02*
D03*
X1445000D02*
D03*
X1562000D02*
D03*
X1580000D02*
D03*
X1421000Y1412000D02*
D03*
X1403000D02*
D03*
X1317000Y1403000D02*
D03*
X1299000D02*
D03*
X1621000Y1428000D02*
D03*
X1603000D02*
D03*
X1265000Y1518000D02*
D03*
X1283000D02*
D03*
X1140000Y1584000D02*
D03*
X1122000D02*
D03*
X1157000D02*
D03*
X1175000D02*
D03*
X1369750Y1583000D02*
D03*
X1387750D02*
D03*
X1553000Y1558000D02*
D03*
X1571000D02*
D03*
X1463000Y1583000D02*
D03*
X1445000D02*
D03*
X1351000Y1583000D02*
D03*
X1333000D02*
D03*
X1562000Y1583000D02*
D03*
X1580000D02*
D03*
X1421000Y1527000D02*
D03*
X1403000D02*
D03*
X1317000Y1518000D02*
D03*
X1299000D02*
D03*
X1603000Y1543000D02*
D03*
X1621000D02*
D03*
X1140000Y1698000D02*
D03*
X1122000D02*
D03*
X1157000D02*
D03*
X1175000D02*
D03*
X1283000Y1632000D02*
D03*
X1265000D02*
D03*
X1387750Y1697000D02*
D03*
X1369750D02*
D03*
X1553000Y1672000D02*
D03*
X1571000D02*
D03*
X1463000Y1697000D02*
D03*
X1445000D02*
D03*
X1351000D02*
D03*
X1333000D02*
D03*
X1580000D02*
D03*
X1562000D02*
D03*
X1421000Y1641000D02*
D03*
X1403000D02*
D03*
X1317000Y1632000D02*
D03*
X1299000D02*
D03*
X1603000Y1657000D02*
D03*
X1621000D02*
D03*
X1140000Y1813000D02*
D03*
X1122000D02*
D03*
X1157000D02*
D03*
X1175000D02*
D03*
X1265000Y1747000D02*
D03*
X1283000D02*
D03*
X1369750Y1812000D02*
D03*
X1387750D02*
D03*
X1571000Y1787000D02*
D03*
X1553000D02*
D03*
X1463000Y1812000D02*
D03*
X1445000D02*
D03*
X1351000D02*
D03*
X1333000D02*
D03*
X1562000D02*
D03*
X1580000D02*
D03*
X1421000Y1756000D02*
D03*
X1403000D02*
D03*
X1317000Y1747000D02*
D03*
X1299000D02*
D03*
X1621000Y1772000D02*
D03*
X1603000D02*
D03*
X1265000Y1975000D02*
D03*
X1283000D02*
D03*
X1140000Y1928000D02*
D03*
X1122000D02*
D03*
X1157000D02*
D03*
X1175000D02*
D03*
X1265000Y1862000D02*
D03*
X1283000D02*
D03*
X1369750Y1927000D02*
D03*
X1387750D02*
D03*
X1553000Y1902000D02*
D03*
X1571000D02*
D03*
X1463000Y1927000D02*
D03*
X1445000D02*
D03*
X1351000D02*
D03*
X1333000D02*
D03*
X1580000D02*
D03*
X1562000D02*
D03*
X1421000Y1871000D02*
D03*
X1403000D02*
D03*
X1317000Y1862000D02*
D03*
X1299000D02*
D03*
X1621000Y1887000D02*
D03*
X1603000D02*
D03*
X1421000Y1984000D02*
D03*
X1403000D02*
D03*
X1122000Y2041000D02*
D03*
X1140000D02*
D03*
X1157000Y2042000D02*
D03*
X1175000D02*
D03*
X1369000Y2040000D02*
D03*
X1387000D02*
D03*
X1553000Y2015000D02*
D03*
X1571000D02*
D03*
X1463000Y2041000D02*
D03*
X1445000D02*
D03*
X1351000Y2040000D02*
D03*
X1333000D02*
D03*
X1562000D02*
D03*
X1580000D02*
D03*
X1317000Y1975000D02*
D03*
X1299000D02*
D03*
X1387750Y2156000D02*
D03*
X1369750D02*
D03*
X1299000Y2091000D02*
D03*
X1317000D02*
D03*
X1333000Y2156000D02*
D03*
X1351000D02*
D03*
X1140000Y2157000D02*
D03*
X1122000D02*
D03*
X1621000Y2116000D02*
D03*
X1603000D02*
D03*
X1265000Y2091000D02*
D03*
X1283000D02*
D03*
X1157000Y2157000D02*
D03*
X1175000D02*
D03*
X1562000Y2156000D02*
D03*
X1580000D02*
D03*
X1463000Y2156000D02*
D03*
X1445000D02*
D03*
X1421000Y2100000D02*
D03*
X1403000D02*
D03*
X1553000Y2131000D02*
D03*
X1571000D02*
D03*
D28*
X1825050Y1168250D02*
D03*
X1812350D02*
D03*
X1799650D02*
D03*
X1786950D02*
D03*
X1825050Y1113750D02*
D03*
X1812350D02*
D03*
X1799650D02*
D03*
X1786950D02*
D03*
D29*
X1695000Y1402000D02*
D03*
Y1382000D02*
D03*
X1667500Y1402000D02*
D03*
Y1382000D02*
D03*
X1726000Y1402000D02*
D03*
Y1382000D02*
D03*
X1602000Y1225000D02*
D03*
Y1205000D02*
D03*
X1491000Y1225000D02*
D03*
Y1205000D02*
D03*
X1750748Y1382000D02*
D03*
Y1402000D02*
D03*
X1777000Y1382000D02*
D03*
Y1402000D02*
D03*
D30*
X1881250Y1516250D02*
D03*
Y1602250D02*
D03*
D31*
X1818000Y1554500D02*
D03*
X1836000D02*
D03*
Y1606500D02*
D03*
X1818000D02*
D03*
X1836000Y1586500D02*
D03*
X1818000D02*
D03*
X1764000Y1998000D02*
D03*
X1782000D02*
D03*
X1294000Y1352500D02*
D03*
X1312000D02*
D03*
X1294000Y1466500D02*
D03*
X1312000D02*
D03*
Y1581500D02*
D03*
X1294000D02*
D03*
Y1695500D02*
D03*
X1312000D02*
D03*
Y1810500D02*
D03*
X1294000D02*
D03*
X1312000Y1925500D02*
D03*
X1294000D02*
D03*
X1312000Y2038500D02*
D03*
X1294000D02*
D03*
X1312000Y2155000D02*
D03*
X1294000D02*
D03*
X1818000Y1521000D02*
D03*
X1836000D02*
D03*
X1861000Y1168250D02*
D03*
X1843000D02*
D03*
X1421000Y1279000D02*
D03*
X1403000D02*
D03*
X1421000Y1393000D02*
D03*
X1403000D02*
D03*
X1421000Y1508000D02*
D03*
X1403000D02*
D03*
X1421000Y1622000D02*
D03*
X1403000D02*
D03*
X1421000Y1737000D02*
D03*
X1403000D02*
D03*
X1421000Y1852000D02*
D03*
X1403000D02*
D03*
X1421000Y1965000D02*
D03*
X1403000D02*
D03*
X1421000Y2081000D02*
D03*
X1403000D02*
D03*
D32*
X1529000Y2194500D02*
D03*
Y2214500D02*
D03*
X1268000Y2189000D02*
D03*
Y2209000D02*
D03*
X1314000Y2190000D02*
D03*
Y2210000D02*
D03*
X1390000Y2190000D02*
D03*
Y2210000D02*
D03*
X1352000Y2190000D02*
D03*
Y2210000D02*
D03*
D33*
X1264250Y2241950D02*
D03*
Y2254650D02*
D03*
Y2267350D02*
D03*
Y2280050D02*
D03*
X1209750Y2241950D02*
D03*
Y2254650D02*
D03*
Y2267350D02*
D03*
Y2280050D02*
D03*
D34*
X1501500Y2272000D02*
D03*
X1162500Y2276500D02*
D03*
D35*
X1436000Y2249500D02*
D03*
Y2294500D02*
D03*
X1097000Y2299000D02*
D03*
Y2254000D02*
D03*
D36*
X1118000Y2348000D02*
D03*
X1138000D02*
D03*
Y2325000D02*
D03*
X1118000D02*
D03*
D37*
X1759000Y1271300D02*
D03*
Y1253300D02*
D03*
X1787000Y1311350D02*
D03*
Y1329350D02*
D03*
X1234000Y1326000D02*
D03*
Y1344000D02*
D03*
X1243000Y1292000D02*
D03*
Y1274000D02*
D03*
X1553000Y1295000D02*
D03*
Y1277000D02*
D03*
X1586000Y1295000D02*
D03*
Y1277000D02*
D03*
X1447000Y1315500D02*
D03*
Y1297500D02*
D03*
X1619000Y1295000D02*
D03*
Y1277000D02*
D03*
X1234000Y1452000D02*
D03*
Y1434000D02*
D03*
X1243000Y1406000D02*
D03*
Y1388000D02*
D03*
X1553000Y1391000D02*
D03*
Y1409000D02*
D03*
X1586000Y1391000D02*
D03*
Y1409000D02*
D03*
X1447000Y1411500D02*
D03*
Y1429500D02*
D03*
X1619000Y1391000D02*
D03*
Y1409000D02*
D03*
X1234000Y1567000D02*
D03*
Y1549000D02*
D03*
X1243000Y1503000D02*
D03*
Y1521000D02*
D03*
X1553000Y1506000D02*
D03*
Y1524000D02*
D03*
X1586000Y1506000D02*
D03*
Y1524000D02*
D03*
X1447000Y1526500D02*
D03*
Y1544500D02*
D03*
X1619000Y1506000D02*
D03*
Y1524000D02*
D03*
X1234000Y1681000D02*
D03*
Y1663000D02*
D03*
X1243000Y1617000D02*
D03*
Y1635000D02*
D03*
X1553000Y1620000D02*
D03*
Y1638000D02*
D03*
X1586000Y1620000D02*
D03*
Y1638000D02*
D03*
X1447000Y1658500D02*
D03*
Y1640500D02*
D03*
X1619000Y1638000D02*
D03*
Y1620000D02*
D03*
X1234000Y1796000D02*
D03*
Y1778000D02*
D03*
X1243000Y1732000D02*
D03*
Y1750000D02*
D03*
X1553000Y1735000D02*
D03*
Y1753000D02*
D03*
X1586000D02*
D03*
Y1735000D02*
D03*
X1447000Y1755500D02*
D03*
Y1773500D02*
D03*
X1619000Y1735000D02*
D03*
Y1753000D02*
D03*
X1234000Y1911000D02*
D03*
Y1893000D02*
D03*
X1243000Y1847000D02*
D03*
Y1865000D02*
D03*
X1553000Y1850000D02*
D03*
Y1868000D02*
D03*
X1586000Y1850000D02*
D03*
Y1868000D02*
D03*
X1447000Y1870500D02*
D03*
Y1888500D02*
D03*
X1619000Y1868000D02*
D03*
Y1850000D02*
D03*
X1234000Y2025000D02*
D03*
Y2007000D02*
D03*
X1243000Y1960000D02*
D03*
Y1978000D02*
D03*
X1553000Y1963000D02*
D03*
Y1981000D02*
D03*
X1586000Y1963000D02*
D03*
Y1981000D02*
D03*
X1447000Y1984000D02*
D03*
Y2002000D02*
D03*
X1619000Y1981000D02*
D03*
Y1963000D02*
D03*
X1234000Y2123000D02*
D03*
Y2141000D02*
D03*
X1449000Y2099500D02*
D03*
Y2117500D02*
D03*
X1243000Y2076000D02*
D03*
Y2094000D02*
D03*
X1619000Y2079000D02*
D03*
Y2097000D02*
D03*
X1553000Y2079000D02*
D03*
Y2097000D02*
D03*
X1586000Y2079000D02*
D03*
Y2097000D02*
D03*
X1688000Y1063500D02*
D03*
Y1081500D02*
D03*
X1578250Y1063500D02*
D03*
Y1081500D02*
D03*
X1081000Y1188000D02*
D03*
Y1170000D02*
D03*
D38*
X1859700Y1419600D02*
D03*
Y1362400D02*
D03*
X1834300Y1419600D02*
D03*
Y1362400D02*
D03*
X1889700Y1285250D02*
D03*
Y1228050D02*
D03*
X1864300Y1285250D02*
D03*
Y1228050D02*
D03*
D39*
X1865600Y1311350D02*
D03*
X1808400D02*
D03*
X1865600Y1336750D02*
D03*
X1808400D02*
D03*
X1780400Y1278700D02*
D03*
X1837600D02*
D03*
X1780400Y1253300D02*
D03*
X1837600D02*
D03*
D40*
X1890750Y1337500D02*
D03*
Y1305500D02*
D03*
X1892000Y1407000D02*
D03*
Y1375000D02*
D03*
X1081000Y1251000D02*
D03*
Y1219000D02*
D03*
D41*
X1597000Y1917500D02*
D03*
X1621000Y1927000D02*
D03*
Y1908000D02*
D03*
X1215000Y1345000D02*
D03*
X1191000Y1335500D02*
D03*
Y1354500D02*
D03*
X1490000Y1288000D02*
D03*
X1466000Y1278500D02*
D03*
Y1297500D02*
D03*
X1507000Y1313500D02*
D03*
Y1294500D02*
D03*
X1531000Y1304000D02*
D03*
X1479000Y1344000D02*
D03*
X1503000Y1353500D02*
D03*
Y1334500D02*
D03*
X1545000Y1344000D02*
D03*
X1521000Y1334500D02*
D03*
Y1353500D02*
D03*
X1621000Y1334500D02*
D03*
Y1353500D02*
D03*
X1597000Y1344000D02*
D03*
X1479000Y1573000D02*
D03*
X1503000Y1582500D02*
D03*
Y1563500D02*
D03*
Y1448500D02*
D03*
Y1467500D02*
D03*
X1479000Y1458000D02*
D03*
X1191000Y1468500D02*
D03*
Y1449500D02*
D03*
X1215000Y1459000D02*
D03*
X1466000Y1411500D02*
D03*
Y1392500D02*
D03*
X1490000Y1402000D02*
D03*
X1507000Y1427500D02*
D03*
Y1408500D02*
D03*
X1531000Y1418000D02*
D03*
X1521000Y1467500D02*
D03*
Y1448500D02*
D03*
X1545000Y1458000D02*
D03*
X1621000Y1448500D02*
D03*
Y1467500D02*
D03*
X1597000Y1458000D02*
D03*
X1521000Y1582500D02*
D03*
Y1563500D02*
D03*
X1545000Y1573000D02*
D03*
X1191000Y1583500D02*
D03*
Y1564500D02*
D03*
X1215000Y1574000D02*
D03*
X1466000Y1526500D02*
D03*
Y1507500D02*
D03*
X1490000Y1517000D02*
D03*
X1507000Y1542500D02*
D03*
Y1523500D02*
D03*
X1531000Y1533000D02*
D03*
X1621000Y1564000D02*
D03*
Y1583000D02*
D03*
X1597000Y1573500D02*
D03*
X1521000Y1696500D02*
D03*
Y1677500D02*
D03*
X1545000Y1687000D02*
D03*
X1191000Y1697500D02*
D03*
Y1678500D02*
D03*
X1215000Y1688000D02*
D03*
X1490000Y1631000D02*
D03*
X1466000Y1621500D02*
D03*
Y1640500D02*
D03*
X1507000Y1656500D02*
D03*
Y1637500D02*
D03*
X1531000Y1647000D02*
D03*
X1479000Y1687000D02*
D03*
X1503000Y1696500D02*
D03*
Y1677500D02*
D03*
X1621000Y1678000D02*
D03*
Y1697000D02*
D03*
X1597000Y1687500D02*
D03*
X1191000Y1812500D02*
D03*
Y1793500D02*
D03*
X1215000Y1803000D02*
D03*
X1466000Y1755500D02*
D03*
Y1736500D02*
D03*
X1490000Y1746000D02*
D03*
X1507000Y1771500D02*
D03*
Y1752500D02*
D03*
X1531000Y1762000D02*
D03*
X1503000Y1792500D02*
D03*
Y1811500D02*
D03*
X1479000Y1802000D02*
D03*
X1521000Y1812000D02*
D03*
Y1793000D02*
D03*
X1545000Y1802500D02*
D03*
X1621000Y1793000D02*
D03*
Y1812000D02*
D03*
X1597000Y1802500D02*
D03*
X1191000Y1927500D02*
D03*
Y1908500D02*
D03*
X1215000Y1918000D02*
D03*
X1466000Y1870500D02*
D03*
Y1851500D02*
D03*
X1490000Y1861000D02*
D03*
X1507000Y1886500D02*
D03*
Y1867500D02*
D03*
X1531000Y1877000D02*
D03*
X1503000Y1907500D02*
D03*
Y1926500D02*
D03*
X1479000Y1917000D02*
D03*
X1521000Y1927000D02*
D03*
Y1908000D02*
D03*
X1545000Y1917500D02*
D03*
X1621000Y2020500D02*
D03*
Y2039500D02*
D03*
X1597000Y2030000D02*
D03*
X1521000Y2039500D02*
D03*
Y2020500D02*
D03*
X1545000Y2030000D02*
D03*
X1503000Y2020500D02*
D03*
Y2039500D02*
D03*
X1479000Y2030000D02*
D03*
X1191000Y2041500D02*
D03*
Y2022500D02*
D03*
X1215000Y2032000D02*
D03*
X1466000Y1983500D02*
D03*
Y1964500D02*
D03*
X1490000Y1974000D02*
D03*
X1507000Y1999500D02*
D03*
Y1980500D02*
D03*
X1531000Y1990000D02*
D03*
X1466000Y2099500D02*
D03*
Y2080500D02*
D03*
X1490000Y2090000D02*
D03*
X1191000Y2156500D02*
D03*
Y2137500D02*
D03*
X1215000Y2147000D02*
D03*
X1621000Y2137000D02*
D03*
Y2156000D02*
D03*
X1597000Y2146500D02*
D03*
X1503000Y2136500D02*
D03*
X1503000Y2155500D02*
D03*
X1479000Y2146000D02*
D03*
X1521000Y2156000D02*
D03*
Y2137000D02*
D03*
X1545000Y2146500D02*
D03*
X1507000Y2115500D02*
D03*
Y2096500D02*
D03*
X1531000Y2106000D02*
D03*
D42*
X1275500Y1328000D02*
D03*
X1266000Y1354000D02*
D03*
X1275600D02*
D03*
X1256500Y1328000D02*
D03*
X1256400Y1354000D02*
D03*
X1275500Y1442000D02*
D03*
X1266000Y1468000D02*
D03*
X1275600D02*
D03*
X1256500Y1442000D02*
D03*
X1256400Y1468000D02*
D03*
X1275500Y1557000D02*
D03*
X1266000Y1583000D02*
D03*
X1275600D02*
D03*
X1256500Y1557000D02*
D03*
X1256400Y1583000D02*
D03*
X1275500Y1671000D02*
D03*
X1266000Y1697000D02*
D03*
X1275600D02*
D03*
X1256500Y1671000D02*
D03*
X1256400Y1697000D02*
D03*
X1275500Y1786000D02*
D03*
X1266000Y1812000D02*
D03*
X1275600D02*
D03*
X1256500Y1786000D02*
D03*
X1256400Y1812000D02*
D03*
X1275500Y1901000D02*
D03*
X1266000Y1927000D02*
D03*
X1275600D02*
D03*
X1256500Y1901000D02*
D03*
X1256400Y1927000D02*
D03*
X1275500Y2014000D02*
D03*
X1266000Y2040000D02*
D03*
X1275600D02*
D03*
X1256500Y2014000D02*
D03*
X1256400Y2040000D02*
D03*
X1275500Y2130000D02*
D03*
X1266000Y2156000D02*
D03*
X1275600D02*
D03*
X1256500Y2130000D02*
D03*
X1256400Y2156000D02*
D03*
D43*
X1077000Y1289000D02*
D03*
Y1355000D02*
D03*
Y1469000D02*
D03*
Y1403000D02*
D03*
Y1584000D02*
D03*
Y1518000D02*
D03*
Y1698000D02*
D03*
Y1632000D02*
D03*
Y1813000D02*
D03*
Y1747000D02*
D03*
Y1862000D02*
D03*
Y1928000D02*
D03*
Y2041000D02*
D03*
Y1975000D02*
D03*
Y2091000D02*
D03*
Y2157000D02*
D03*
D44*
X1513250Y1147500D02*
D03*
Y1102500D02*
D03*
X1578250D02*
D03*
Y1147500D02*
D03*
X1623000D02*
D03*
Y1102500D02*
D03*
X1688000D02*
D03*
Y1147500D02*
D03*
X1685600Y1872800D02*
D03*
X1711000D02*
D03*
X1685600Y1847400D02*
D03*
X1711000D02*
D03*
X1685600Y1822000D02*
D03*
X1711000Y1898200D02*
D03*
X1685600D02*
D03*
X1711000Y1923600D02*
D03*
X1685600D02*
D03*
X1711000Y1949000D02*
D03*
X1685600D02*
D03*
Y1974400D02*
D03*
X1711000D02*
D03*
Y1999800D02*
D03*
X1685600D02*
D03*
X1711000Y2025200D02*
D03*
X1685600D02*
D03*
X1711000Y2050600D02*
D03*
X1685600D02*
D03*
D45*
X1642800Y1225000D02*
D03*
X1668200D02*
D03*
X1533050D02*
D03*
X1558450D02*
D03*
X1371550Y2252000D02*
D03*
X1396950D02*
D03*
X1324500Y2252250D02*
D03*
X1299100D02*
D03*
X1470750Y2383750D02*
D03*
X1500750D02*
D03*
X1470750Y2353750D02*
D03*
X1889800Y1092000D02*
D03*
X1909800D02*
D03*
Y1117000D02*
D03*
D46*
X1934500Y1865750D02*
D03*
Y1815750D02*
D03*
Y1765750D02*
D03*
Y1715750D02*
D03*
Y1665750D02*
D03*
Y1615750D02*
D03*
Y1565750D02*
D03*
Y1515750D02*
D03*
Y1465750D02*
D03*
X1934000Y1330500D02*
D03*
Y1280500D02*
D03*
D47*
X1934500Y1415750D02*
D03*
X1934000Y1230500D02*
D03*
D48*
X1770000Y2380000D02*
D03*
X1530750Y2393250D02*
D03*
X1440750D02*
D03*
X1050000Y2380000D02*
D03*
X1770000Y1050000D02*
D03*
X1050000D02*
D03*
D49*
X1859000Y2093500D02*
D03*
D50*
Y2163500D02*
D03*
Y2233500D02*
D03*
D51*
X1932000Y2361000D02*
D03*
Y1966000D02*
D03*
D52*
X1596750Y2397000D02*
D03*
D53*
Y2342000D02*
D03*
X1638750D02*
D03*
X1680750D02*
D03*
Y2397000D02*
D03*
X1638750D02*
D03*
D54*
X1500750Y2353750D02*
D03*
D55*
X1711000Y1822000D02*
D03*
D56*
X1166500Y1194000D02*
D03*
X1441500D02*
D03*
X1019000Y1343000D02*
D03*
Y1319000D02*
D03*
Y1433000D02*
D03*
Y1457000D02*
D03*
Y1548000D02*
D03*
Y1572000D02*
D03*
Y1662000D02*
D03*
Y1686000D02*
D03*
Y1777000D02*
D03*
Y1801000D02*
D03*
Y1892000D02*
D03*
Y1916000D02*
D03*
Y2005000D02*
D03*
Y2029000D02*
D03*
Y2145000D02*
D03*
Y2121000D02*
D03*
D57*
X1181000Y2369000D02*
D03*
X1391000D02*
D03*
D58*
X1889800Y1117000D02*
D03*
D59*
X1936900Y1044300D02*
D03*
Y1164700D02*
D03*
D60*
X1019000Y1295000D02*
D03*
Y1409000D02*
D03*
Y1524000D02*
D03*
Y1638000D02*
D03*
Y1753000D02*
D03*
Y1868000D02*
D03*
Y1981000D02*
D03*
Y2097000D02*
D03*
D61*
X1038500Y1186750D02*
D03*
Y1241750D02*
D03*
D62*
Y1131750D02*
D03*
M02*
