M48
;Layer_Color=9474304
;FILE_FORMAT=4:4
METRIC,LZ
;TYPE=PLATED
T1F00S00C0.5000
T2F00S00C0.9000
T3F00S00C1.0000
T4F00S00C1.6000
T5F00S00C1.8000
T6F00S00C2.3000
;TYPE=NON_PLATED
T7F00S00C0.8000
T8F00S00C1.0000
T9F00S00C1.4000
T10F00S00C1.4500
T11F00S00C1.7000
T12F00S00C3.2000
T13F00S00C3.4000
%
T01
X0150075Y010235
X014645Y0116125
X0154875Y01174
X0159975Y0112725
X01601Y010635
X0165075Y010225
X01711Y010635
X0172475Y01117
X01759Y01185
X0166125Y0117625
X019025Y01186
X0185525Y0102325
X01986Y0102225
X01842Y01228
X01816Y0120925
X017295Y0120275
X017325Y013055
X01706Y01308
X01716Y01329
X01727053Y013415
X0176025
X017615Y013615
X01785929Y01346582
X01759Y012926
X0166975Y012865
X016695Y0145125
X01669Y01484
X016545Y015375
X01697Y01558672
X01699Y01576672
X017095Y01566942
X0171Y01587
X0175Y01568
X0177Y01571
X01767125Y015565
X01733Y0155
X01799Y01526
X0178725Y01484
X0177Y014435
X0174425
X0186675Y0147675
X0184325Y0150425
X0157475Y015375
X015775Y014225
X015495Y013715
X01443Y0134
X0138925Y0131475
X0138425Y012735
X01333Y01282
Y01307
X01279Y0130675
X01238Y01311
X0121425Y013195
X012165Y014335
X0127775Y0142075
X01282Y0137
X01333Y01396
Y01425
X013915Y0142875
X013865Y013875
X0138625Y015025
X0138875Y0154375
X01333Y01541
Y01511
X01282Y01484
X012785Y0153575
X0121375Y015485
X01444Y01568
X01447Y01452
X01578Y01257
X0112Y01273
Y01313
X01121Y01387
Y01427
Y01502
Y01542
X0118575Y014965
X011885Y013815
X01187Y01611
X01121Y01616
Y01656
X01122Y01731
X01121Y01771
X01123Y01846
X01121Y01886
Y01959
X01122Y01982
X01187Y01952
X0117275Y019095
X0118575Y018405
X0118625Y017255
X0121425Y017775
X01279Y0176475
X01282Y01715
X0127975Y0165025
X01282Y01599
X01333Y01625
Y01655
X0139Y0165825
X01385Y01617
X0138425Y017315
X0138925Y0177275
X01333Y01764
Y01741
X013325Y0185625
Y0188175
X012785
X01282Y01828
Y01943
X0133325Y0196825
X01385Y0196
X0138875Y0188975
X0138375Y018485
X01444Y01795
Y01682
X015805Y0165525
X0157525Y017665
X0157475Y018835
X01443Y0191
X0121375Y018945
X01215Y01663
X0162075Y0171575
X01653Y01698
X0167Y0171425
X01664864Y01639864
X01659019Y01591226
X01646Y01601
X017Y01597
X01698369Y016115
X0175525Y0161425
X01757Y01674
X01775
X01765979Y01685979
X01735Y01687
Y01671
X0174Y01739
X01721Y01746
X01715Y01761
X01731Y01759
X01706Y01773
X0178525Y01781
X0176875Y017245
X01835Y01715
X01878Y01735
X0190225Y0177925
X0189Y01838
X01653Y0180725
X0162175Y0194525
X01793Y01656
X01792Y01641
X01739Y020145
X0167Y02078
X016235Y02059
X016525Y02132901
X01582Y02117
X01564Y0219075
X0142275Y02192
X01403Y02169
X01444Y02139
Y02024
X0139Y0200125
X0133325Y01993
X0127675Y01995
X01282Y02057
X01278Y02109
X0133275Y021085
X01332Y02085
X01382Y02071
X012905Y0218725
X01286Y02209
X012Y02181
X01215Y0212
Y02006
Y02309
X012615Y023075
X0143825Y02316785
X01576Y01995
X01174Y02021
X01187Y02069
X01122Y02075
Y02099
X01174Y02135
T02
X018898Y01092
X019098
Y01117
X018898
X016682Y01225
X016428
X0155845
X0153305
X0139695Y02252
X0137155
X013245Y0225225
X012991
T03
X016856Y01822
Y018474
Y018728
X01711
Y018474
Y01822
Y018982
X016856
Y019236
X01711
Y01949
X016856
Y019744
X01711
Y019998
X016856
Y020252
X01711
Y020506
X016856
X0150075Y0235375
X0147075
Y0238375
X0150075
T04
X01391Y02369
X01181
T05
X01859Y020935
Y021635
Y022335
T06
X019369Y010443
Y011647
T07
X014415Y01194
X011665
T08
X0151325Y011025
Y011475
X0157825
Y011025
X01623
Y011475
X01688
Y011025
X01019Y01295
Y01319
Y01343
Y01409
Y01433
Y01457
Y01524
Y01548
Y01572
Y01638
Y01662
Y01686
Y01753
Y01777
Y01801
Y01868
Y01892
Y01916
Y01981
Y02005
Y02029
Y02097
Y02121
Y02145
X0144075Y0239325
X0153075
T09
X0159675Y02342
X0163875
X0168075
Y02397
X0163875
X0159675
T10
X010385Y0113175
Y0118675
Y0124175
T11
X01934Y012305
Y012805
Y013305
X019345Y0141575
Y0146575
Y0151575
Y0156575
Y0161575
Y0166575
Y0171575
Y0176575
Y0181575
Y0186575
T12
X01932Y01966
Y02361
T13
X0105Y0105
X0177
Y0238
X0105
M30
